<svg width="44" height="57" viewBox="0 0 44 57" fill="none" xmlns="http://www.w3.org/2000/svg">
<path d="M12.8305 55.7217C13.5641 56.1625 14.4447 56.3197 15.2787 56.1586C16.1126 55.9976 16.8316 55.5316 17.2774 54.8631L34.0855 29.6571C37.4472 24.6159 37.6225 18.5429 35.2766 16.2508L42.8403 4.90807C43.0632 4.57382 43.1312 4.16571 43.0295 3.77352C42.9277 3.38133 42.6645 3.03719 42.2977 2.8168L39.5316 1.15486C39.1648 0.934471 38.7244 0.855892 38.3075 0.936407C37.8905 1.01692 37.531 1.24994 37.3081 1.58419L29.7444 12.9269C26.5582 11.8951 20.8506 14.6442 17.489 19.6854L0.680829 44.8914C0.235051 45.5599 0.0989524 46.3761 0.302482 47.1605C0.506009 47.9449 1.03249 48.6332 1.7661 49.074L12.8305 55.7217Z" fill="#FFFCF6"/>
</svg>
